<?xml version="1.0" standalone="no"?>
<!DOCTYPE svg PUBLIC "-//W3C//DTD SVG 20010904//EN"
 "http://www.w3.org/TR/2001/REC-SVG-20010904/DTD/svg10.dtd">
<svg version="1.0" xmlns="http://www.w3.org/2000/svg"
 width="512.000000pt" height="512.000000pt" viewBox="0 0 512.000000 512.000000"
 preserveAspectRatio="xMidYMid meet">

<g transform="translate(0.000000,512.000000) scale(0.100000,-0.100000)"
fill="#000000" stroke="none">
<path d="M2340 5110 c-491 -49 -932 -220 -1323 -512 -147 -111 -382 -343 -489
-484 -478 -629 -639 -1410 -448 -2170 164 -651 605 -1238 1194 -1587 634 -375
1388 -457 2086 -227 393 129 699 319 1001 620 403 403 646 887 736 1470 24
161 24 539 -1 700 -72 470 -238 859 -524 1230 -148 192 -423 438 -652 584 -99
63 -351 186 -471 230 -135 49 -341 102 -494 126 -148 23 -476 34 -615 20z
m-341 -417 c-211 -222 -344 -402 -488 -660 l-63 -113 -345 0 c-327 0 -345 1
-332 18 96 124 182 215 299 316 277 238 545 381 930 494 64 18 64 13 -1 -55z
m1196 36 c327 -89 659 -281 926 -537 99 -94 239 -251 239 -266 0 -3 -150 -6
-334 -6 l-334 0 -63 113 c-144 258 -274 434 -489 661 -39 42 -57 66 -45 63 11
-4 56 -16 100 -28z m-775 -434 l0 -375 -311 0 c-262 0 -310 2 -306 14 13 33
116 190 196 296 72 97 396 440 415 440 4 0 6 -169 6 -375z m520 169 c94 -98
180 -202 257 -309 54 -77 143 -218 143 -228 0 -4 -139 -7 -310 -7 l-310 0 0
376 0 376 68 -60 c37 -33 105 -100 152 -148z m-1623 -856 c-44 -120 -110 -378
-136 -533 -16 -97 -41 -308 -41 -347 0 -4 -187 -8 -415 -8 l-415 0 0 36 c0 66
31 247 65 379 36 140 79 258 143 398 l41 87 381 0 c302 0 381 -3 377 -12z
m1103 -438 l0 -450 -490 0 c-269 0 -490 3 -490 8 0 4 7 66 15 137 25 225 75
436 151 647 l39 108 388 0 387 0 0 -450z m1114 342 c76 -210 126 -422 151
-647 8 -71 15 -133 15 -137 0 -5 -220 -8 -490 -8 l-490 0 0 450 0 450 388 0
387 0 39 -108z m1073 11 c89 -191 144 -371 183 -599 11 -64 20 -136 20 -160
l0 -44 -405 0 c-223 0 -405 4 -405 8 0 5 -5 58 -11 118 -22 227 -66 443 -135
656 -19 59 -34 110 -34 113 0 3 167 5 371 5 l370 0 46 -97z m-3467 -1115 c0
-7 5 -65 11 -128 20 -225 65 -445 135 -662 19 -59 34 -110 34 -113 0 -3 -169
-5 -376 -5 l-375 0 -54 113 c-63 131 -112 271 -149 418 -28 115 -56 287 -56
349 l0 40 415 0 c325 0 415 -3 415 -12z m1280 -448 l0 -460 -388 0 -388 0 -42
118 c-54 152 -86 266 -112 399 -20 103 -50 332 -50 380 l0 23 490 0 490 0 0
-460z m1280 437 c0 -48 -30 -277 -50 -380 -26 -133 -58 -247 -112 -399 l-42
-118 -388 0 -388 0 0 460 0 460 490 0 490 0 0 -23z m1110 -17 c0 -22 -7 -86
-15 -143 -34 -226 -97 -433 -196 -646 l-42 -91 -368 0 c-203 0 -369 2 -369 5
0 3 16 54 35 113 68 212 121 481 140 725 l7 77 404 0 404 0 0 -40z m-3299
-1292 c126 -229 270 -427 456 -627 53 -57 88 -101 77 -98 -10 3 -54 15 -96 27
-335 91 -668 281 -932 531 -88 84 -246 259 -246 273 0 3 153 6 339 6 l339 0
63 -112z m909 -264 l0 -376 -66 59 c-107 94 -268 267 -358 387 -76 102 -180
258 -193 292 -4 12 44 14 306 14 l311 0 0 -376z m920 367 c0 -16 -183 -284
-249 -365 -83 -101 -214 -239 -302 -317 l-69 -61 0 376 0 376 310 0 c180 0
310 -4 310 -9z m978 -43 c-314 -379 -690 -631 -1133 -759 -55 -16 -101 -29
-103 -29 -2 0 39 46 92 102 52 57 129 145 170 197 114 143 187 256 323 499
l24 42 335 0 336 0 -44 -52z"/>
</g>
</svg>
